<?xml version="1.0" encoding="utf-8"?>
<!-- Generator: Adobe Illustrator 23.0.0, SVG Export Plug-In . SVG Version: 6.00 Build 0)  -->
<svg version="1.1" id="Layer_1" xmlns="http://www.w3.org/2000/svg" xmlns:xlink="http://www.w3.org/1999/xlink" x="0px" y="0px"
	 viewBox="0 0 32 32" style="enable-background:new 0 0 32 32;" xml:space="preserve">
<style type="text/css">
	.st0{fill:none;}
	.st1{fill:url(#SVGID_1_);}
	.st2{fill:url(#SVGID_2_);}
	.st3{fill:url(#SVGID_3_);}
	.st4{fill:url(#SVGID_4_);}
</style>
<title>Logo_misa-amis</title>
<rect class="st0" width="32" height="32"/>
<linearGradient id="SVGID_1_" gradientUnits="userSpaceOnUse" x1="12.3554" y1="21.3521" x2="16.1154" y2="6.0121" gradientTransform="matrix(1 0 0 -1 0 34)">
	<stop  offset="0" style="stop-color:#F1040C"/>
	<stop  offset="0.95" style="stop-color:#FC4F4F"/>
</linearGradient>
<path class="st1" d="M7.6,25.8c4.9,4.2,12.1,4.1,17-0.1c-2.8,1-5.9,0.9-8.5-0.5c-3.4-1.8-5.6-5.3-5.7-9.1c0-0.1,0-0.1,0-0.2l0,0
	c0-1.1,0.4-2.2,1-3.1C7.1,15,5,19.9,6.3,24.5C6.7,25,7.1,25.4,7.6,25.8z"/>
<linearGradient id="SVGID_2_" gradientUnits="userSpaceOnUse" x1="531.6124" y1="79.0145" x2="535.3724" y2="63.6745" gradientTransform="matrix(6.123234e-17 1 1 -6.123234e-17 -59.73 -519.32)">
	<stop  offset="8.000000e-02" style="stop-color:#0073E6"/>
	<stop  offset="1" style="stop-color:#00A7FF"/>
</linearGradient>
<path class="st2" d="M6.1,7.5c-4.2,4.9-4.2,12.1,0.1,17c-1.9-5,0.3-10.7,5.2-13.1c1.4-0.7,2.9-1.1,4.4-1.1H16c1.1,0,2.2,0.4,3.1,1
	C17,7,12.1,4.9,7.5,6.2C7,6.6,6.6,7,6.1,7.5z"/>
<linearGradient id="SVGID_3_" gradientUnits="userSpaceOnUse" x1="473.8983" y1="598.2607" x2="477.6584" y2="582.9308" gradientTransform="matrix(-1 0 0 1 493.6 -579.05)">
	<stop  offset="0.11" style="stop-color:#02B514"/>
	<stop  offset="0.99" style="stop-color:#3BDE05"/>
</linearGradient>
<path class="st3" d="M24.5,6.1c-4.9-4.2-12.1-4.1-17,0.1c5-1.9,10.7,0.3,13.1,5.2c0.7,1.4,1.1,2.9,1.1,4.4c0,0,0,0.1,0,0.2l0,0
	c0,1.1-0.4,2.2-1,3.1c4.3-2.2,6.4-7.1,5.1-11.7C25.4,6.9,25,6.5,24.5,6.1z"/>
<linearGradient id="SVGID_4_" gradientUnits="userSpaceOnUse" x1="-45.3123" y1="540.5652" x2="-41.5623" y2="525.2352" gradientTransform="matrix(6.123234e-17 -1 -1 -6.123234e-17 553.32 -25.73)">
	<stop  offset="0" style="stop-color:#F1A204"/>
	<stop  offset="1" style="stop-color:#FFDD00"/>
</linearGradient>
<path class="st4" d="M25.9,24.4c4.2-4.9,4.2-12.1-0.1-17c0.4,1.2,0.7,2.4,0.7,3.7c0,1.7-0.4,3.3-1.2,4.8c-1.8,3.4-5.3,5.6-9.1,5.7
	H16c-1.1,0-2.2-0.4-3.1-1c2.2,4.3,7.1,6.4,11.7,5.1C25.1,25.3,25.5,24.9,25.9,24.4z"/>
</svg>
